<svg id="mmi_normal" data-name="mmi normal" xmlns="http://www.w3.org/2000/svg" width="160.433" height="77.447" viewBox="0 0 160.433 77.447">
  <path id="Tracé_916" data-name="Tracé 916" d="M9.014,9.232Q13.91,1,23.906,1a16.825,16.825,0,0,1,9.075,2.6A17.75,17.75,0,0,1,39.5,10.907a18.843,18.843,0,0,1,10.39-8.824A18.044,18.044,0,0,1,56.312,1a17.146,17.146,0,0,1,6.862,1.421A17.939,17.939,0,0,1,69,6.487a20.712,20.712,0,0,1,5.491,14.7V50.8H67.144v-29.4a14.637,14.637,0,0,0-3.432-10A11.369,11.369,0,0,0,54.987,7.67,12.813,12.813,0,0,0,45.674,11.3q-3.928,3.713-3.928,10.175v29.31H34.4v-29.4a14.637,14.637,0,0,0-3.432-10,11.345,11.345,0,0,0-8.715-3.723A12.813,12.813,0,0,0,12.942,11.3q-3.928,3.72-3.928,10.182v29.31H1.66V1.779H9.014Z" transform="translate(-1.112 -0.664)" fill="#fdfdfd"/>
  <path id="Tracé_917" data-name="Tracé 917" d="M239.871,8.232Q244.773,0,254.77,0a16.825,16.825,0,0,1,9.068,2.6,17.707,17.707,0,0,1,6.518,7.314,18.857,18.857,0,0,1,10.393-8.824A18.024,18.024,0,0,1,287.168,0a17.146,17.146,0,0,1,6.862,1.421,17.952,17.952,0,0,1,5.834,4.07,20.705,20.705,0,0,1,5.494,14.7V49.8H298v-29.4a14.645,14.645,0,0,0-3.429-10,11.327,11.327,0,0,0-8.725-3.73,12.8,12.8,0,0,0-9.313,3.634q-3.925,3.72-3.921,10.182v29.31h-7.354v-29.4a14.645,14.645,0,0,0-3.429-10A11.363,11.363,0,0,0,253.1,6.663a12.8,12.8,0,0,0-9.313,3.634q-3.918,3.72-3.921,10.182v29.31H232.52V.779h7.351Z" transform="translate(-155.705 0.005)" fill="#fff"/>
  <path id="Tracé_918" data-name="Tracé 918" d="M463.37,2.37h7.354V51.386H463.37Z" transform="translate(-310.291 -1.585)" fill="#fff"/>
  <text id="MÉTIERS_DU_MULTIMÉDIA_ET_DE_L_INTERNET" data-name="MÉTIERS DU MULTIMÉDIA ET DE L’INTERNET" transform="translate(0.994 75.447)" fill="#fff" font-size="6" font-family="Roboto-Regular, Roboto" letter-spacing="-0.02em"><tspan x="0" y="0">M</tspan><tspan y="0" letter-spacing="0.01em">É</tspan><tspan y="0">TIERS DU MU</tspan><tspan y="0" letter-spacing="-0.14em">L</tspan><tspan y="0">TIMÉDIA </tspan><tspan y="0" letter-spacing="0.01em">E</tspan><tspan y="0">T</tspan><tspan y="0" xml:space="preserve"> DE </tspan><tspan y="0" letter-spacing="-0.17em">L</tspan><tspan y="0">’I</tspan><tspan y="0">N</tspan><tspan y="0">TERN</tspan><tspan y="0" letter-spacing="0.01em">E</tspan><tspan y="0">T</tspan></text>
  <text id="CHAMBÉRY" transform="translate(0 65.755)" fill="#fff" font-size="13" font-family="Roboto-Regular, Roboto" letter-spacing="0.08em"><tspan x="0" y="0">CHAMBÉ</tspan><tspan y="0" letter-spacing="0.05em">R</tspan><tspan y="0">Y</tspan></text>
  <circle id="Ellipse_2" data-name="Ellipse 2" cx="4.969" cy="4.969" r="4.969" transform="translate(90.486 56.896)" fill="#fff"/>
  <circle id="Ellipse_3" data-name="Ellipse 3" cx="4.969" cy="4.969" r="4.969" transform="translate(105.359 56.649)" fill="#fff"/>
  <circle id="Ellipse_4" data-name="Ellipse 4" cx="4.969" cy="4.969" r="4.969" transform="translate(120.228 56.649)" fill="#fff"/>
  <circle id="Ellipse_5" data-name="Ellipse 5" cx="4.969" cy="4.969" r="4.969" transform="translate(135.101 56.649)" fill="#fff"/>
  <circle id="Ellipse_6" data-name="Ellipse 6" cx="4.969" cy="4.969" r="4.969" transform="translate(149.97 56.649)" fill="#fff"/>
</svg>
