<svg xmlns="http://www.w3.org/2000/svg" width="165" height="139.521" viewBox="0 0 165 139.521">
  <g id="Calque_2" data-name="Calque 2" transform="translate(0.022 -0.02)">
    <g id="Calque_13" data-name="Calque 13" transform="translate(-0.022 0.02)">
      <path id="Tracé_991" data-name="Tracé 991" d="M110.486,150V91.226s1.273-5.086-6.039-9.211S50.226,48.65,50.226,48.65L46.86,54.9,42.5,53.527s-4.028-.745-4.028,3.917-.544,58.25-.544,58.25-8.191-3.5-5.51-2.435,32.725,14.4,32.725,14.4l38.131,22.45S108.26,154.346,110.486,150Z" transform="translate(-8.125 -12.44)" fill="#fff"/>
      <path id="Tracé_992" data-name="Tracé 992" d="M176.043,33.683l-.134,58.034s1.906,4.557-2.331,7.2-59.91,38.667-59.91,38.667V78.806s-.633-6.143-6.039-9.211S81.4,53.393,81.4,53.393l-16.1-.112L44.45,41.107,113.586.9s3.9-2.688,10.045,1.34,48.176,24.877,48.176,24.877A6.7,6.7,0,0,1,176.043,33.683Z" transform="translate(-11.336 -0.02)" fill="#a93dc8"/>
      <path id="Tracé_993" data-name="Tracé 993" d="M92.79,59.221l8.258-4.021,37.707,19.695-8.049,4.341Z" transform="translate(-23.682 -14.113)" fill="#7a1497"/>
      <path id="Tracé_994" data-name="Tracé 994" d="M202.14,66.671l10.171-6.031.313,49.561-10.268,6.672Z" transform="translate(-51.61 -15.503)" fill="#7a1497"/>
      <path id="Tracé_995" data-name="Tracé 995" d="M145.595,7.532a1.489,1.489,0,0,0-.469-2.144,5.034,5.034,0,0,0-2.435-.558,3.8,3.8,0,0,0-2.524.812,1.489,1.489,0,0,0-.186,2.04,3.44,3.44,0,0,0,2.815,1.176,3.328,3.328,0,0,0,2.8-1.325Z" transform="translate(-35.653 -1.247)" fill="#7a1497"/>
      <path id="Tracé_996" data-name="Tracé 996" d="M146.034,41.7a9.531,9.531,0,0,0,2.643.037c2.1-.253,5.994-1.072,5.994-3.723,0-2.234-2.762-3.433-4.892-4.036a9.814,9.814,0,0,0-4.892-.156c-2.01.462-4.535,1.489-4.721,3.768C139.936,40.4,143.89,41.376,146.034,41.7Z" transform="translate(-35.78 -8.592)" fill="#7a1497"/>
      <path id="Tracé_997" data-name="Tracé 997" d="M145.43,20.158l8.258-4.028,30.082,14.616-8.049,4.341Z" transform="translate(-37.127 -4.135)" fill="#7d3cc7"/>
      <path id="Tracé_998" data-name="Tracé 998" d="M136.38,19.138l6.828-3.768.216,30.946-6.9,4.162Z" transform="translate(-34.815 -3.941)" fill="#7a1497"/>
      <path id="Tracé_999" data-name="Tracé 999" d="M134.29,50.769l-6.835-3.544-.1-30.715,6.724,2.919Z" transform="translate(-32.509 -4.232)" fill="#fff"/>
      <path id="Tracé_1000" data-name="Tracé 1000" d="M115.05,14.318,26.3,63.722l-.171-7.647L108.274,11.25Z" transform="translate(-6.657 -2.888)" fill="#7d3cc7"/>
      <path id="Tracé_1001" data-name="Tracé 1001" d="M27.98,74.24l5.726,3.492.156,6.515L28.3,81.232Z" transform="translate(-7.13 -18.976)" fill="#b4e4e9"/>
      <path id="Tracé_1002" data-name="Tracé 1002" d="M33.966,68.417l76.351-41.832v-6.2L33.81,61.9Z" transform="translate(-8.619 -5.223)" fill="#7a1497"/>
      <path id="Tracé_1003" data-name="Tracé 1003" d="M169.084,140.262l-.961-3.812s9.6-27.1-.573-45.83C167.55,90.62,186.746,104.082,169.084,140.262Z" transform="translate(-42.776 -23.16)" fill="#fff"/>
      <path id="Tracé_1004" data-name="Tracé 1004" d="M167,89.4l7.446-3.582s15.771,22.077,1.243,49.888l-6.783,3.373S183.94,103.906,167,89.4Z" transform="translate(-42.636 -21.934)" fill="#7a1497"/>
      <path id="Tracé_1005" data-name="Tracé 1005" d="M63.344,27.96,24.26,49.8l17.58,10.73,44.5-24.773h0a16.381,16.381,0,0,0-23-7.8Z" transform="translate(-6.18 -6.627)" fill="#7d3cc7"/>
      <path id="Tracé_1006" data-name="Tracé 1006" d="M24.27,57.98,41.843,68.725l.484,20.015L25.245,79.462Z" transform="translate(-6.182 -14.823)" fill="#fff"/>
      <path id="Tracé_1007" data-name="Tracé 1007" d="M92.375,39.14,92.754,59l-44.4,24.929L47.87,63.913Z" transform="translate(-12.21 -10.011)" fill="#7a1497"/>
      <line id="Ligne_13" data-name="Ligne 13" y1="0.216" transform="translate(85.385 24.021)" fill="none"/>
      <ellipse id="Ellipse_13" data-name="Ellipse 13" cx="21.453" cy="28.517" rx="21.453" ry="28.517" transform="translate(37.144 67.974) rotate(-16.809)" fill="#a93dc8"/>
      <ellipse id="Ellipse_14" data-name="Ellipse 14" cx="21.386" cy="28.428" rx="21.386" ry="28.428" transform="translate(35.113 69.162) rotate(-16.809)" fill="#7a1497"/>
      <path id="Tracé_1008" data-name="Tracé 1008" d="M92.242,128.292a15.108,15.108,0,0,1-4.587,4.147l-.41.223a13.8,13.8,0,0,1-2.39.99c-9.464,2.926-20.275-4.9-24.155-17.483C57.722,106.587,59.673,97,64.952,91.7A14.073,14.073,0,0,1,70.8,88.121C80.261,85.2,91.08,93.027,94.96,105.6,97.61,114.2,96.307,122.782,92.242,128.292Z" transform="translate(-15.13 -22.365)" fill="#a93dc8"/>
      <path id="Tracé_1009" data-name="Tracé 1009" d="M82.084,128.984a15.108,15.108,0,0,1-4.587,4.147l-.41.223L74.4,134.844l-1.653.908-.246.141-5.346,2.926-7.446,4.1-18.086,9.918a21.914,21.914,0,0,1-10.1-4.654h0a29.56,29.56,0,0,1-3.455-3.276,34.929,34.929,0,0,1-7.3-13.068c-.045-.149-.089-.3-.127-.454A35.5,35.5,0,0,1,19.53,126.4c.35-7.781,3.179-14.676,7.937-18.995L57.549,90.22Z" transform="translate(-4.972 -23.057)" fill="#a93dc8"/>
      <path id="Tracé_1010" data-name="Tracé 1010" d="M63.955,146.858h0c5.212-6.128,7.238-16.1,4.669-26.329C64.9,105.637,52.816,95.9,41.64,98.7a15.815,15.815,0,0,0-2.234.745c-9.747,4.028-14.751,17.409-11.266,31.273,3.232,12.889,12.762,21.951,22.524,22.286h0l1.966-.953Z" transform="translate(-6.888 -25.101)" fill="#7a1497"/>
      <path id="Tracé_1011" data-name="Tracé 1011" d="M56.554,150.009,31.766,161.982C24.677,162.22,11.2,111.29,11.2,111.29L35.385,99.86Z" transform="translate(-2.844 -25.519)" fill="#7a1497"/>
      <path id="Tracé_1012" data-name="Tracé 1012" d="M33.323,162.083c-.276.305-.566.6-.856.864a12.427,12.427,0,0,1-3.284,2.2.529.529,0,0,1-.112.06h0l-.3.127c-9.084,3.8-20.655-4.17-26.061-18.094-3.909-10.1-3.492-20.6.395-27.327a16.619,16.619,0,0,1,1.653-2.375h0a13.4,13.4,0,0,1,4.609-3.6l.745-.305a12.242,12.242,0,0,1,2.688-.745c8.5-1.214,18.235,6.493,23.083,18.928C40.381,143.55,39.1,155.8,33.323,162.083Z" transform="translate(0.022 -28.815)" fill="#fff"/>
      <path id="Tracé_1013" data-name="Tracé 1013" d="M68.689,147.822a12.241,12.241,0,0,1-4.1,2.6l-.112.045h0C55.577,153.779,51.117,107.48,44.14,104.5h0a12.658,12.658,0,0,1,4.579-3.075l.7-.238c8.771-2.74,19.114,5.391,23.38,18.57C76.441,130.965,74.564,142.32,68.689,147.822Z" transform="translate(-11.257 -25.723)" fill="#7a1497"/>
      <path id="Tracé_1014" data-name="Tracé 1014" d="M30.287,158.128c-.037,0-2.293,3.47-2.3,3.477-7.528,3.656-16.031-1.4-20.983-12.9-4.013-9.315-3.425-19.166.916-24.572h0a11.259,11.259,0,0,1,3.783-3.083l.6-.275C19.8,117.606,31.576,157.517,30.287,158.128Z" transform="translate(-1.083 -30.816)" fill="#7a1497"/>
      <path id="Tracé_1015" data-name="Tracé 1015" d="M32.049,160.372a9.679,9.679,0,0,1-3.068,2.576l-.082.045h0c-6.858,3.5-16.188-2.978-20.849-14.49-3.8-9.352-3.4-19.173.484-24.535h0a10.067,10.067,0,0,1,3.41-3.023l.544-.261c6.813-3.023,15.838,3.41,20.432,14.706C36.792,145,36.263,155.13,32.049,160.372Z" transform="translate(-1.362 -30.648)" fill="#a93dc8"/>
    </g>
  </g>
</svg>
