<svg xmlns="http://www.w3.org/2000/svg" width="96.24" height="137.493" viewBox="0 0 96.24 137.493">
  <g id="Calque_2" data-name="Calque 2" transform="translate(0 0.022)">
    <g id="Calque_15" data-name="Calque 15" transform="translate(0 -0.022)">
      <path id="Tracé_1032" data-name="Tracé 1032" d="M77.035,21.294V103.98c0,7.107-7.3,12.4-15.017,10.9l-2.1-.41L9.777,104.722C4.066,103.614,0,99.072,0,93.826V11.146A10.525,10.525,0,0,1,3.445,3.43,13.25,13.25,0,0,1,15.012.245L67.253,10.4C72.958,11.506,77.035,16.054,77.035,21.294Z" transform="translate(0 0.022)" fill="#7a1497"/>
      <path id="Tracé_1033" data-name="Tracé 1033" d="M74.5,25.249v83.212c0,6.392-5.872,11.328-12.668,11.223L10.1,109.629C4.215,108.488,0,103.8,0,98.39V13.084a10.829,10.829,0,0,1,3.573-7.96,13.638,13.638,0,0,1,8.508-1.064l52.574,10.22C70.4,15.4,74.5,19.975,74.5,25.249Z" transform="translate(0 -1.683)" fill="#fff"/>
      <path id="Tracé_1034" data-name="Tracé 1034" d="M111.719,56.635v82.68a10.9,10.9,0,0,1-4.47,8.342c.111-.161.5-.327.593-.5a22.462,22.462,0,0,1-2.93,2.111,13.472,13.472,0,0,1-8.209.953l-1.662-.327L94.6,149.8,44.46,140.062c-5.506-1.069-9.483-5.329-9.76-10.336V46.481a10.525,10.525,0,0,1,3.445-7.716,13.233,13.233,0,0,1,11.549-3.18l52.241,10.154C107.642,46.847,111.719,51.389,111.719,56.635Z" transform="translate(-15.479 -15.742)" fill="#7a1497"/>
      <path id="Tracé_1035" data-name="Tracé 1035" d="M109.182,60.586v83.206a10.3,10.3,0,0,1-.249,2.216h0v.044h0a1.5,1.5,0,0,1-.094.377,10.216,10.216,0,0,1-.465,1.329,10.522,10.522,0,0,1-.482.969v.055l-.382.321-.155.122h0l-.249.194-.493.371-.127.089-.249.177c-.388.271-.809.554-1.263.825a34.687,34.687,0,0,1-7.1,3.229c-.676.227-1.385.449-2.127.659H95.66l-.044-.249-.554.155h0l-.515-.1-49.76-9.611C38.9,143.82,34.7,139.133,34.7,133.721V48.416a10.835,10.835,0,0,1,3.556-7.96,13.677,13.677,0,0,1,8.508-1.064l52.574,10.22C105.083,50.731,109.182,55.3,109.182,60.586Z" transform="translate(-15.479 -17.444)" fill="#fff"/>
      <path id="Tracé_1036" data-name="Tracé 1036" d="M155.489,229.64a3.03,3.03,0,0,1-.21.371,8.8,8.8,0,0,1-1.019,1.329,12.837,12.837,0,0,1-1.064,1.025,22.458,22.458,0,0,1-2.93,2.11c-.327.2-.67.4-1.036.6l-.554.3a38.288,38.288,0,0,1-6.647,2.7l-.554.155h0l-.216.066-.249.072h0v-.222l-.554-3.036v-.227l-1.6-8.536.554.111.554.122,13.233,2.77a17.4,17.4,0,0,0,1.734.266c.183,0,.36.039.554.05h.116Z" transform="translate(-61.941 -100.955)" fill="#a93dc8"/>
      <path id="Tracé_1037" data-name="Tracé 1037" d="M157.4,229.83a9.084,9.084,0,0,1-2.216,2.642l-.072.066a22.462,22.462,0,0,1-2.93,2.11h-.05a34.588,34.588,0,0,1-7.007,3.224c-.676.227-1.385.449-2.127.659h-.078V238.4h0l-.044-.249-.554-2.869h0v-.094l-1.6-8.519v-.127l14.341,2.98c.393.078.792.15,1.191.2h.116C156.683,229.775,157.043,229.808,157.4,229.83Z" transform="translate(-62.775 -101.04)" fill="#7a1497"/>
      <path id="Tracé_1038" data-name="Tracé 1038" d="M166.181,224.884s.449,3.806-2.72,3.806,2.266.676,2.266.676l1.872-2.437-.554-2.808Z" transform="translate(-72.472 -99.96)" fill="#7a1497"/>
      <line id="Ligne_17" data-name="Ligne 17" x1="0.831" y2="99.431" transform="translate(40.531 25.493)" fill="none" stroke="#a93dc8" stroke-miterlimit="10" stroke-width="2"/>
      <line id="Ligne_18" data-name="Ligne 18" x1="0.831" y2="98.323" transform="translate(67.12 31.309)" fill="none" stroke="#a93dc8" stroke-miterlimit="10" stroke-width="2"/>
      <line id="Ligne_19" data-name="Ligne 19" x2="8.863" y2="1.662" transform="translate(25.852 28.54)" fill="none" stroke="#a93dc8" stroke-miterlimit="10" stroke-width="2"/>
      <line id="Ligne_20" data-name="Ligne 20" x2="14.679" y2="2.77" transform="translate(47.178 32.14)" fill="none" stroke="#a93dc8" stroke-miterlimit="10" stroke-width="2"/>
      <line id="Ligne_21" data-name="Ligne 21" x2="12.187" y2="1.939" transform="translate(73.767 36.018)" fill="none" stroke="#a93dc8" stroke-miterlimit="10" stroke-width="2"/>
      <path id="Tracé_1039" data-name="Tracé 1039" d="M128.17,90.431l1.108,1.939L130.94,86" transform="translate(-57.172 -38.35)" fill="none" stroke="#a93dc8" stroke-miterlimit="10" stroke-width="2"/>
      <path id="Tracé_1040" data-name="Tracé 1040" d="M127.67,150.931l1.108,1.939,1.662-6.37" transform="translate(-56.949 -65.337)" fill="none" stroke="#a93dc8" stroke-miterlimit="10" stroke-width="2"/>
      <path id="Tracé_1041" data-name="Tracé 1041" d="M127.17,128.931l1.108,1.939,1.662-6.37" transform="translate(-56.726 -55.523)" fill="none" stroke="#a93dc8" stroke-miterlimit="10" stroke-width="2"/>
      <path id="Tracé_1042" data-name="Tracé 1042" d="M127.17,110.431l1.108,1.939L129.94,106" transform="translate(-56.726 -47.271)" fill="none" stroke="#a93dc8" stroke-miterlimit="10" stroke-width="2"/>
      <line id="Ligne_22" data-name="Ligne 22" x2="12.187" y2="1.939" transform="translate(76.26 62.884)" fill="none" stroke="#a93dc8" stroke-miterlimit="10" stroke-width="2"/>
      <line id="Ligne_23" data-name="Ligne 23" x2="12.187" y2="1.939" transform="translate(76.26 50.42)" fill="none" stroke="#a93dc8" stroke-miterlimit="10" stroke-width="2"/>
      <line id="Ligne_24" data-name="Ligne 24" x2="12.187" y2="1.939" transform="translate(75.706 73.131)" fill="none" stroke="#a93dc8" stroke-miterlimit="10" stroke-width="2"/>
      <line id="Ligne_25" data-name="Ligne 25" x2="12.187" y2="1.939" transform="translate(75.983 85.318)" fill="none" stroke="#a93dc8" stroke-miterlimit="10" stroke-width="2"/>
      <circle id="Ellipse_15" data-name="Ellipse 15" cx="2.216" cy="2.216" r="2.216" transform="translate(20.313 41.28)" fill="#a93dc8"/>
      <circle id="Ellipse_16" data-name="Ellipse 16" cx="2.216" cy="2.216" r="2.216" transform="translate(20.174 70.362)" fill="#a93dc8"/>
      <circle id="Ellipse_17" data-name="Ellipse 17" cx="2.216" cy="2.216" r="2.216" transform="translate(20.174 60.806)" fill="#a93dc8"/>
      <circle id="Ellipse_18" data-name="Ellipse 18" cx="2.216" cy="2.216" r="2.216" transform="translate(20.036 51.39)" fill="#a93dc8"/>
      <line id="Ligne_26" data-name="Ligne 26" x2="8.863" y2="1.662" transform="translate(26.683 63.299)" fill="none" stroke="#a93dc8" stroke-miterlimit="10" stroke-width="2"/>
      <line id="Ligne_27" data-name="Ligne 27" x2="8.863" y2="1.662" transform="translate(26.544 54.021)" fill="none" stroke="#a93dc8" stroke-miterlimit="10" stroke-width="2"/>
      <line id="Ligne_28" data-name="Ligne 28" x2="8.863" y2="1.662" transform="translate(26.821 43.358)" fill="none" stroke="#a93dc8" stroke-miterlimit="10" stroke-width="2"/>
      <line id="Ligne_29" data-name="Ligne 29" x2="8.863" y2="1.662" transform="translate(26.544 73.27)" fill="none" stroke="#a93dc8" stroke-miterlimit="10" stroke-width="2"/>
      <path id="Tracé_1043" data-name="Tracé 1043" d="M81.759,82.256,79.1,81.713l.028-3.783,2.631.831Z" transform="translate(-35.284 -34.75)" fill="#a93dc8"/>
      <path id="Tracé_1044" data-name="Tracé 1044" d="M81.593,119.422l-2.653-.543.022-3.789,2.631.831Z" transform="translate(-35.213 -51.326)" fill="#a93dc8"/>
      <path id="Tracé_1045" data-name="Tracé 1045" d="M80.593,137.422l-2.653-.543.022-3.789,2.631.831Z" transform="translate(-34.767 -59.355)" fill="#a93dc8"/>
      <path id="Tracé_1046" data-name="Tracé 1046" d="M81.423,101.422l-2.653-.543.022-3.789,2.631.831Z" transform="translate(-35.137 -43.296)" fill="#a93dc8"/>
      <line id="Ligne_30" data-name="Ligne 30" x2="14.679" y2="2.77" transform="translate(47.178 76.455)" fill="none" stroke="#a93dc8" stroke-miterlimit="10" stroke-width="2"/>
      <line id="Ligne_31" data-name="Ligne 31" x2="14.679" y2="2.77" transform="translate(47.732 56.513)" fill="none" stroke="#a93dc8" stroke-miterlimit="10" stroke-width="2"/>
      <line id="Ligne_32" data-name="Ligne 32" x2="14.679" y2="2.77" transform="translate(47.638 45.529)" fill="none" stroke="#a93dc8" stroke-miterlimit="10" stroke-width="2"/>
      <line id="Ligne_33" data-name="Ligne 33" x2="14.679" y2="2.77" transform="translate(47.544 66.39)" fill="none" stroke="#a93dc8" stroke-miterlimit="10" stroke-width="2"/>
    </g>
  </g>
</svg>
