<svg xmlns="http://www.w3.org/2000/svg" width="132.338" height="111.83" viewBox="0 0 132.338 111.83">
  <g id="Calque_2" data-name="Calque 2" transform="translate(0 0.003)">
    <g id="Calque_15" data-name="Calque 15" transform="translate(0 -0.003)">
      <path id="Tracé_1016" data-name="Tracé 1016" d="M132.338,16.779V81.908c0,5.593-12.531,9.761-25.8,8.58l-3.618-.321L16.792,82.492C7.014,81.621,0,78.039,0,73.912V8.766C0,6.428,2.268,4.271,5.921,2.7,10.807.583,18.177-.48,25.787.2l89.741,7.978C125.336,9.07,132.338,12.647,132.338,16.779Z" transform="translate(0 0.003)" fill="#7a1497"/>
      <path id="Tracé_1017" data-name="Tracé 1017" d="M128.022,19.706V85.249c0,5.032-10.088,8.925-21.766,8.837l-88.841-7.92C7.257,85.267.05,81.579.05,77.312V10.1c0-2.461,2.338-4.676,6.108-6.271A48.933,48.933,0,0,1,20.77,2.99l90.3,8.1C120.955,11.95,128.022,15.539,128.022,19.706Z" transform="translate(-0.021 -1.153)" fill="#fff"/>
      <path id="Tracé_1018" data-name="Tracé 1018" d="M122.161,35.021l-.07,54.631c0,4.2-7.224,7.44-15.576,7.364L42.941,91.488c-7.236-.754-12.4-3.834-12.391-7.388l.07-56c0-2.052,1.683-3.881,4.384-5.225a30.118,30.118,0,0,1,10.456-.7l64.614,5.669C117.135,28.551,122.167,31.549,122.161,35.021Z" transform="translate(-12.694 -9.139)" fill="#a93dc8"/>
      <path id="Tracé_1019" data-name="Tracé 1019" d="M102.945,14.137c-10.3-1.011-25.133-2.227-31.392-2.566-4.419-.24-8.229-.368-8.364-.105s5.441.976,11.462,1.619c7.405.783,20.854,1.958,29.879,2.607,8.469.584,17.306,1.169,17.488.789S112.442,15.073,102.945,14.137Z" transform="translate(-26.255 -4.702)" fill="#7a1497"/>
      <path id="Tracé_1020" data-name="Tracé 1020" d="M101.635,146.694a17,17,0,0,0-5.517-.584c-.883.117-1.713.351-1.976.812s.491,1,1.42,1.368a17.231,17.231,0,0,0,5.108.847c1.561,0,3.273-.117,3.63-.742S103.132,147.144,101.635,146.694Z" transform="translate(-39.096 -60.698)" fill="#7a1497"/>
      <rect id="Rectangle_289" data-name="Rectangle 289" width="48.526" height="1.86" transform="translate(29.675 27.186) rotate(5.143)" fill="#7a1497"/>
      <rect id="Rectangle_290" data-name="Rectangle 290" width="48.331" height="1.853" transform="translate(30.512 27.538) rotate(4.99)" fill="#fff"/>
      <path id="Tracé_1021" data-name="Tracé 1021" d="M21.941,138.271a7.5,7.5,0,0,0-3.507-.5,2.613,2.613,0,0,0-1.59.748c-.368.468,0,.894.514,1.216a7.177,7.177,0,0,0,3.162.719c1.046,0,2.244-.134,2.683-.7S22.823,138.663,21.941,138.271Z" transform="translate(-6.937 -57.232)" fill="#7a1497"/>
      <path id="Tracé_1022" data-name="Tracé 1022" d="M35.562,140.949a4.378,4.378,0,0,0-2.3-.386,2.168,2.168,0,0,0-1.169.526c-.321.333-.134.643.158.877a3.934,3.934,0,0,0,2.022.544,2.862,2.862,0,0,0,1.923-.485C36.579,141.621,36.094,141.235,35.562,140.949Z" transform="translate(-13.264 -58.396)" fill="#7a1497"/>
      <path id="Tracé_1023" data-name="Tracé 1023" d="M44.342,142.583a3.378,3.378,0,0,0-1.753-.321,1.578,1.578,0,0,0-.906.38c-.24.245-.094.485.134.666a3.086,3.086,0,0,0,1.555.444,2.122,2.122,0,0,0,1.461-.339C45.113,143.115,44.739,142.811,44.342,142.583Z" transform="translate(-17.269 -59.106)" fill="#7a1497"/>
      <rect id="Rectangle_291" data-name="Rectangle 291" width="46.536" height="1.853" transform="translate(48.572 35.497) rotate(4.99)" fill="#7a1497"/>
      <rect id="Rectangle_292" data-name="Rectangle 292" width="46.536" height="1.853" transform="translate(49.404 36.052) rotate(4.99)" fill="#fff"/>
      <rect id="Rectangle_293" data-name="Rectangle 293" width="46.536" height="1.853" transform="translate(57.048 72.612) rotate(4.99)" fill="#7a1497"/>
      <rect id="Rectangle_294" data-name="Rectangle 294" width="46.536" height="1.853" transform="translate(57.874 73.167) rotate(4.99)" fill="#fff"/>
      <path id="Tracé_1024" data-name="Tracé 1024" d="M49.3,108.33l-9.585,6.114L47,121.878" transform="translate(-16.5 -45.012)" fill="#7a1497"/>
      <path id="Tracé_1025" data-name="Tracé 1025" d="M50.184,108.83l-8.224,5.9,6.1,6.926" transform="translate(-17.435 -45.22)" fill="#a93dc8" stroke="#fff" stroke-miterlimit="10" stroke-width="1"/>
      <path id="Tracé_1026" data-name="Tracé 1026" d="M67.064,113.31l6.236,8.142-8.13,4.641" transform="translate(-27.079 -47.081)" fill="none" stroke="#7a1497" stroke-miterlimit="10" stroke-width="1"/>
      <path id="Tracé_1027" data-name="Tracé 1027" d="M68.307,112.62l6.014,8.148-7.931,4.717" transform="translate(-27.586 -46.794)" fill="none" stroke="#fff" stroke-miterlimit="10" stroke-width="1"/>
      <path id="Tracé_1028" data-name="Tracé 1028" d="M106.953,169.692,80.19,167.535l.421-17.435,27.961,2.437Z" transform="translate(-33.321 -62.368)" fill="#7a1497"/>
      <path id="Tracé_1029" data-name="Tracé 1029" d="M105.963,170.186,79.2,167.445l.421-17.435,27.926,2.168Z" transform="translate(-32.909 -62.331)" fill="#fff"/>
      <path id="Tracé_1030" data-name="Tracé 1030" d="M108.364,184.352l-67.811-7.417L39.67,175l68.974,6.248Z" transform="translate(-16.484 -72.715)" fill="#7a1497"/>
      <path id="Tracé_1031" data-name="Tracé 1031" d="M109.991,183.855,42.18,176.444l3.793-3.1,67.805,7.411Z" transform="translate(-17.527 -72.025)" fill="#fff"/>
      <line id="Ligne_14" data-name="Ligne 14" x1="4.746" y2="19.142" transform="translate(33.327 60.226)" fill="none" stroke="#fff" stroke-miterlimit="10" stroke-width="1"/>
      <line id="Ligne_15" data-name="Ligne 15" x1="4.746" y2="19.142" transform="translate(33.327 60.226)" fill="none" stroke="#7a1497" stroke-miterlimit="10" stroke-width="1"/>
      <line id="Ligne_16" data-name="Ligne 16" x1="4.752" y2="19.142" transform="translate(33.835 60.156)" fill="none" stroke="#fff" stroke-miterlimit="10" stroke-width="1"/>
    </g>
  </g>
</svg>
