<svg xmlns="http://www.w3.org/2000/svg" width="135.355" height="95.054" viewBox="0 0 135.355 95.054">
  <g id="Calque_2" data-name="Calque 2" transform="translate(0 0.003)">
    <g id="Calque_15" data-name="Calque 15" transform="translate(0 -0.003)">
      <path id="Tracé_1047" data-name="Tracé 1047" d="M135.355,17.162V83.776c0,5.721-12.817,9.983-26.387,8.776l-3.7-.329L17.175,84.373C7.174,83.483,0,79.818,0,75.6V8.966c0-2.391,2.319-4.6,6.056-6.2C11.053.6,18.592-.491,26.375.208l91.787,8.16C128.194,9.277,135.355,12.935,135.355,17.162Z" transform="translate(0 0.003)" fill="#7a1497"/>
      <path id="Tracé_1048" data-name="Tracé 1048" d="M130.94,20.092V87.13c0,5.147-10.318,9.129-22.262,9.039l-90.867-8.1C7.421,87.148.05,83.376.05,79.012V10.264C.05,7.747,2.441,5.481,6.3,3.849a50.048,50.048,0,0,1,14.945-.855L113.6,11.28C123.712,12.159,130.94,15.829,130.94,20.092Z" transform="translate(-0.02 -1.116)" fill="#fff"/>
      <path id="Tracé_1049" data-name="Tracé 1049" d="M124.25,35.318,124.179,91.2c0,4.292-7.389,7.61-15.932,7.532L43.224,93.072c-7.4-.771-12.679-3.922-12.674-7.556l.072-57.282c0-2.1,1.722-3.969,4.484-5.344A30.8,30.8,0,0,1,45.8,22.178l66.088,5.8C119.109,28.7,124.256,31.767,124.25,35.318Z" transform="translate(-12.287 -8.846)" fill="#a93dc8"/>
      <path id="Tracé_1050" data-name="Tracé 1050" d="M103.851,14.2c-10.533-1.034-25.706-2.278-32.108-2.624-4.519-.245-8.417-.377-8.555-.108s5.566,1,11.723,1.656c7.574.8,21.33,2,30.56,2.666,8.662.6,17.7,1.2,17.886.807S113.566,15.158,103.851,14.2Z" transform="translate(-25.413 -4.551)" fill="#7a1497"/>
      <path id="Tracé_1051" data-name="Tracé 1051" d="M101.807,146.708a17.384,17.384,0,0,0-5.643-.6c-.9.12-1.752.359-2.021.831s.5,1.022,1.453,1.4a17.623,17.623,0,0,0,5.225.867c1.6,0,3.348-.12,3.712-.759S103.338,147.168,101.807,146.708Z" transform="translate(-37.842 -58.751)" fill="#7a1497"/>
      <rect id="Rectangle_295" data-name="Rectangle 295" width="41.5" height="3.987" transform="translate(47.912 56.259) rotate(-12.45)" fill="#7a1497"/>
      <path id="Tracé_1052" data-name="Tracé 1052" d="M76.679,94.11,71.52,97.135,77.54,98Z" transform="translate(-28.765 -37.849)" fill="#7a1497"/>
      <line id="Ligne_34" data-name="Ligne 34" x2="0.861" y2="3.892" transform="translate(47.914 56.261)" fill="none" stroke="#fff" stroke-miterlimit="10" stroke-width="0.5"/>
      <rect id="Rectangle_296" data-name="Rectangle 296" width="41.5" height="3.987" transform="translate(48.895 57.098) rotate(-12.45)" fill="#fff"/>
      <path id="Tracé_1053" data-name="Tracé 1053" d="M78.319,95.51,73.16,98.529l6.02.873Z" transform="translate(-29.424 -38.412)" fill="#fff"/>
    </g>
  </g>
</svg>
