<svg xmlns="http://www.w3.org/2000/svg" width="96" height="102.806" viewBox="0 0 96 102.806">
  <g id="Calque_2" data-name="Calque 2" transform="translate(-1.5 -2.796)">
    <g id="Calque_1" data-name="Calque 1" transform="translate(2.5 4.66)">
      <path id="Tracé_964" data-name="Tracé 964" d="M18.978,68.67h24.6v32.956h-24.6A16.478,16.478,0,0,1,2.5,85.148h0A16.478,16.478,0,0,1,18.978,68.67Z" transform="translate(-2.5 -36.708)" fill="none" stroke="#fff" stroke-miterlimit="10" stroke-width="2"/>
      <path id="Tracé_965" data-name="Tracé 965" d="M84.75,36.622,132.921,4.66V53.1" transform="translate(-43.68 -4.66)" fill="none" stroke="#fff" stroke-miterlimit="10" stroke-width="2"/>
      <path id="Tracé_966" data-name="Tracé 966" d="M84.75,116.688l48.171,31.962V100.21" transform="translate(-43.68 -52.498)" fill="none" stroke="#fff" stroke-miterlimit="10" stroke-width="2"/>
      <path id="Tracé_967" data-name="Tracé 967" d="M19.862,135.15l-9.253,23.7a8.124,8.124,0,0,0,7.57,11.085H26.6a4.254,4.254,0,0,0,3.995-2.791L42.317,135.15Z" transform="translate(-6.28 -69.992)" fill="none" stroke="#fff" stroke-miterlimit="10" stroke-width="2"/>
      <rect id="Rectangle_210" data-name="Rectangle 210" width="4.589" height="13.832" transform="translate(89.411 40.796)" fill="none" stroke="#fff" stroke-miterlimit="10" stroke-width="2"/>
    </g>
  </g>
</svg>
