<svg xmlns="http://www.w3.org/2000/svg" width="127.023" height="74.613" viewBox="0 0 127.023 74.613">
  <g id="Calque_2" data-name="Calque 2" transform="translate(-2 -2)">
    <g id="Calque_1" data-name="Calque 1" transform="translate(3 3)">
      <rect id="Rectangle_212" data-name="Rectangle 212" width="125.023" height="61.251" fill="none" stroke="#fff" stroke-miterlimit="10" stroke-width="2"/>
      <rect id="Rectangle_213" data-name="Rectangle 213" width="30.648" height="11.362" transform="translate(47.346 61.251)" fill="none" stroke="#fff" stroke-miterlimit="10" stroke-width="2"/>
      <path id="Tracé_982" data-name="Tracé 982" d="M0,0H68.164" transform="translate(29.644 72.613)" fill="none" stroke="#fff" stroke-width="2"/>
      <path id="Tracé_973" data-name="Tracé 973" d="M17.26,121.564l16.005-8.244v2.38l-13.487,6.764v.069l13.487,6.761v2.38L17.26,123.43Z" transform="translate(-12.341 -75.266)" fill="#fff" stroke="#fff" stroke-width="2"/>
      <path id="Tracé_974" data-name="Tracé 974" d="M133.109,123.43,117.1,131.674v-2.38l13.491-6.771v-.069L117.1,115.7v-2.38l16.009,8.244Z" transform="translate(-77.742 -75.266)" fill="#fff" stroke="#fff" stroke-width="2"/>
      <path id="Tracé_975" data-name="Tracé 975" d="M74,131.439l8.182-21.259h1.994l-8.21,21.259Z" transform="translate(-49.509 -73.209)" fill="#fff" stroke="#fff" stroke-width="2"/>
      <path id="Tracé_981" data-name="Tracé 981" d="M125.023,0H0" transform="translate(0 6.709)" fill="none" stroke="#fff" stroke-width="2"/>
      <line id="Ligne_10" data-name="Ligne 10" x2="72.806" transform="translate(23.818 18.668)" fill="none" stroke="#fff" stroke-miterlimit="10" stroke-width="2"/>
      <line id="Ligne_11" data-name="Ligne 11" x2="80.919" transform="translate(32.655 25.291)" fill="none" stroke="#fff" stroke-miterlimit="10" stroke-width="2"/>
      <line id="Ligne_12" data-name="Ligne 12" x2="46.384" transform="translate(64.607 49.978)" fill="none" stroke="#fff" stroke-miterlimit="10" stroke-width="2"/>
    </g>
  </g>
</svg>
